<svg width="1121" height="246" viewBox="0 0 1121 246" fill="none" xmlns="http://www.w3.org/2000/svg"><g clip-path="url(#clip0_2038_136)"><path d="M666.174 101.897C667.927 101.652 672.394 101.721 674.179 101.916C680.26 102.531 685.834 105.576 689.637 110.358L689.74 103.095L705.903 103.14L705.885 145.649C705.885 154.048 706.537 164.393 704.474 172.094C698.01 196.226 659.031 198.31 645.531 179.677C644.668 178.485 644.643 178.271 644.849 176.956L646.252 176.024C650.469 173.766 653.831 171.726 657.862 169.205C661.427 175.054 667.131 177.94 673.882 177.696C688.737 177.159 689.695 167.942 689.618 156.491C685.164 161.138 680.485 164.157 673.932 164.985C665.998 166.029 657.97 163.883 651.619 159.02C630.363 142.528 638.608 105.22 666.174 101.897ZM689.708 131.773C688.76 122.482 680.472 115.705 671.172 116.619C661.827 117.537 655.004 125.87 655.957 135.208C656.906 144.547 665.27 151.336 674.61 150.352C683.906 149.373 690.652 141.065 689.708 131.773Z" fill="#24284F"/><path d="M931.304 78.9243C937.867 78.8129 944.429 78.8199 950.992 78.9448C944.847 88.6028 938.541 98.1547 932.069 107.596C943.202 107.442 953.805 111.881 959.509 121.9C963.6 128.956 964.71 137.351 962.588 145.226C960.13 154.084 955.594 159.377 947.728 163.844C929.839 172.515 905.329 165.793 900.614 144.706C896.874 128.007 906.929 115.749 915.618 102.668C920.899 94.7901 926.131 86.8753 931.304 78.9243ZM945.274 133.517C943.112 125.935 935.183 121.568 927.614 123.79C920.135 125.988 915.824 133.803 917.963 141.297C920.098 148.791 927.884 153.162 935.399 151.088C943.004 148.99 947.436 141.099 945.274 133.517Z" fill="#24284F"/><path d="M315.472 110.163C320.907 103.623 325.774 101.669 334.252 101.718C340.903 101.757 346.059 102.975 350.922 107.905C353.704 110.727 355.684 114.238 356.659 118.078C358.665 125.749 357.858 155.932 357.8 165.44C352.317 165.527 346.64 165.443 341.14 165.424C340.822 156.578 343.059 124.057 338.039 119.005C336.24 117.195 332.59 116.551 330.144 116.54C327.49 116.527 325.054 117.347 323.162 119.25C317.024 125.421 319.054 145.202 319.124 153.767L319.052 165.478L302.638 165.414C302.56 155.639 302.784 145.783 302.706 136.05C302.576 127.815 303.656 116.389 292.091 116.636C278.72 116.922 280.564 132.98 280.604 142.324L280.732 165.473L264.142 165.476C264.005 144.672 264.029 123.868 264.213 103.064L280.516 103.093C280.334 105.11 280.481 107.657 280.541 109.721C284.883 104.386 287.559 102.818 294.133 101.882C303.905 100.936 308.86 103.146 315.472 110.163Z" fill="#24284F"/><path d="M567.217 101.912C570.041 101.707 572.913 101.624 575.741 101.808C588.41 102.667 598.938 111.752 602.496 123.789C604.223 129.628 603.962 134.535 603.57 140.535C588.869 141.115 571.711 140.334 556.583 140.606C557.349 143.48 558.18 146.089 560.53 148.015C569.498 155.364 580.223 153.696 587.71 145.959L593.087 148.962C595.51 150.295 599.24 151.647 599.789 154.488C599.666 155.283 599.399 156.126 598.832 156.731C586.487 169.915 564.876 170.999 550.845 159.873C543.94 154.297 540.478 147.295 539.542 138.631C537.94 123.81 543.882 110.973 557.602 104.458C561.283 102.71 563.204 102.31 567.217 101.912ZM587.222 128.218C584.979 119.67 579.388 115.856 570.545 116.297C562.67 117.114 558.302 120.241 556.441 128.198L573.967 128.211L587.222 128.218Z" fill="#24284F"/><path d="M834.846 78.873C853.207 78.6232 872.202 78.8119 890.573 78.8694C890.622 83.5316 890.573 88.1939 890.424 92.8538C887.44 97.4882 877.376 110.48 873.825 114.602C875.785 115.257 877.956 116.137 879.807 117.024C901.108 127.235 896.856 159.112 874.926 165.654C863.631 169.023 854.529 168.165 843.997 163.013C837.642 158.937 835.012 155.511 831.956 148.711C836.913 146.054 841.849 143.346 846.753 140.589C849.22 147.119 854.263 150.677 861.684 151.124C872.283 151.763 881.008 140.66 873.375 131.681C870.036 127.755 862.615 127.771 857.576 127.784C856.763 125.694 853.18 119.88 851.877 117.663C856.821 110.79 864.66 102.336 869.002 95.2469L834.846 95.1274V78.873Z" fill="#24284F"/><path d="M718.179 78.5226L734.67 78.5518L734.679 110.161C735.263 109.526 735.861 108.906 736.477 108.303C745.489 99.5569 761.351 99.1288 770.291 108.203C778.814 116.851 777.47 131.458 777.465 142.693C777.47 150.277 777.411 157.86 777.299 165.443L760.722 165.407L760.776 140.354C760.807 134.071 761.72 124.362 757.099 119.914C750.937 113.198 736.095 117.554 735.218 126.718C734.045 138.987 734.612 153.105 734.657 165.486L718.268 165.416C717.707 137.033 718.17 107.047 718.179 78.5226Z" fill="#24284F"/><path d="M436.16 78.8676L490.175 78.8362L490.138 95.4221C478.14 95.5879 465.792 95.4365 453.767 95.432L453.736 115.826C465.348 115.754 476.961 115.748 488.572 115.809C488.392 120.696 488.469 125.711 488.485 130.61C488.473 131.021 488.273 131.439 488.126 131.843C485.95 132.581 457.801 132.017 453.762 131.975L453.719 165.492L436.189 165.456C435.584 137.325 436.141 107.126 436.16 78.8676Z" fill="#24284F"/><path d="M410.328 103.09C416.241 102.968 422.599 103.094 428.547 103.101C422.78 117.837 416.936 134.098 411.593 149.027C402.149 170.446 401.348 191.175 371.757 190.444L371.604 175.162C381.965 174.824 384.091 172.758 388.088 163.633C386.589 160.777 384.924 156.242 383.564 153.057C379.77 144.224 376.082 135.346 372.499 126.426C370.068 120.522 364.407 108.529 362.843 103.071L380.804 103.096C385.526 113.066 392.644 133.295 396.64 143.984C401.371 131.642 406.324 115.78 410.328 103.09Z" fill="#24284F"/><path d="M810.43 85.6709L810.749 85.9342C811.217 87.5905 811.01 100.52 810.996 103.101L825.402 103.098L825.398 118.872L810.96 118.894C810.983 127.431 810.349 138.262 811.459 146.716C811.554 147.422 813.051 149.872 813.491 150.587C818.125 151.202 820.912 151.175 825.631 151.139C825.802 155.823 825.681 161.019 825.672 165.74C821.141 166.078 817.572 166.097 813.069 166.066C798.519 165.484 793.975 156.885 794.213 143.578C794.361 135.493 794.271 127.083 794.298 118.97L783.385 118.875C783.286 113.623 783.286 108.37 783.376 103.118L794.316 103.1L794.343 90.3444C800.303 89.0488 804.704 87.1745 810.43 85.6709Z" fill="#24284F"/><path d="M1007.01 77.1924C1008.03 78.802 1007.66 92.3233 1007.66 95.0641C989.085 98.9473 981.669 119.554 989.13 135.741C993.176 144.516 999.113 147.366 1007.65 150.393C1007.67 156.302 1007.61 162.211 1007.47 168.118C1002.49 167.549 999.154 166.343 994.439 164.656C958.615 147.766 960.188 94.5299 996.753 79.5514C999.882 78.271 1003.67 77.7706 1007.01 77.1924Z" fill="#24284F"/><path d="M120.121 28.7127C122.239 32.0399 121.468 59.989 121.468 65.6544C83.0774 73.6813 67.7473 116.276 83.1703 149.737C91.5322 167.873 103.806 173.766 121.449 180.022C121.496 192.236 121.375 204.45 121.087 216.661C110.793 215.484 103.889 212.992 94.1431 209.505C20.0937 174.593 23.3455 64.5503 98.9278 33.5888C105.394 30.9423 113.227 29.9079 120.121 28.7127Z" fill="#24284F"/><path d="M1017.77 77.1174C1021.56 77.5208 1025.52 78.3703 1029.08 79.7549C1039.78 83.958 1048.34 92.2752 1052.86 102.844C1062.6 125.118 1054.31 154.322 1031.09 164.4C1025.99 166.453 1023.19 167.316 1017.77 168.134L1017.65 150.254C1020.69 149.296 1024.2 147.965 1026.89 146.238C1032.74 142.535 1036.84 136.615 1038.25 129.834C1041.59 114.15 1034.08 98.5749 1017.68 95.1256C1017.83 89.2293 1017.75 83.037 1017.77 77.1174Z" fill="#1EAEB0"/><path d="M142.373 28.5576C150.205 29.3915 158.4 31.1475 165.749 34.0095C187.861 42.6975 205.57 59.8897 214.908 81.736C235.032 127.777 217.908 188.144 169.911 208.976C159.366 213.219 153.568 215.003 142.363 216.694L142.131 179.734C148.412 177.754 155.668 175.003 161.215 171.434C173.312 163.779 181.794 151.543 184.702 137.526C191.606 105.105 176.08 72.9115 142.187 65.7816C142.484 53.5937 142.335 40.7939 142.373 28.5576Z" fill="#1EAEB0"/><path d="M533.45 101.915C534.129 101.807 534.599 101.933 535.273 102.047C536.438 103.783 535.838 116.573 535.804 119.599L535.59 119.598C518.835 119.535 515.565 128.661 516.07 143.473C516.31 150.516 516.143 158.345 516.164 165.46C510.658 165.518 504.996 165.424 499.476 165.392L499.511 159.474L499.473 103.086L516.012 103.112C515.962 106.496 516.114 110.152 516.196 113.558C520.924 105.895 524.129 102.703 533.45 101.915Z" fill="#24284F"/><path d="M613.666 103.069C619.03 103.021 624.624 103.147 630.006 103.197C629.534 123.316 629.835 145.267 629.987 165.453L613.664 165.443L613.666 103.069Z" fill="#24284F"/><path d="M619.68 76.2216C625.072 75.1084 630.369 78.4939 631.621 83.8528C632.872 89.2123 629.621 94.5915 624.293 95.9787C620.723 96.9082 616.929 95.8291 614.384 93.1602C611.839 90.4913 610.943 86.6521 612.043 83.1327C613.143 79.6134 616.067 76.9673 619.68 76.2216Z" fill="#24284F"/><path d="M1012.65 86.1174C1033.75 86.1174 1047.87 101.915 1047.87 122.617C1047.87 143.271 1033.45 159.118 1012.65 159.118C991.853 159.118 977.431 143.271 977.431 122.617C977.431 101.915 991.548 86.1174 1012.65 86.1174Z" stroke="#24284F" stroke-width="18"/></g><defs><clipPath id="clip0_2038_136"><rect width="1121" height="246" fill="white"/></clipPath></defs></svg>
